# xmcd
#
# Track frame offsets:
#	150
#	19669
#	36417
#	50535
#	67235
#	81928
#	96810
#	112660
#	131862
#	147378
#	166897
#	183645
#	197763
#	214463
#	229156
#	244038
#	259888
#	279090
#
# Disc length: 3928
#
# Revision: 2
# Processed by: cddbd v1.5.2PL0 Copyright (c) Steve Scherf et al.
# Submitted via: kJams Pro 1.0b99
#
DISCID=0e0f5612
DTITLE=Various Artist - NSC 3039
DYEAR=2004
DGENRE=Karaoke
TTITLE0=Darryl Worley - Have You Forgotten
TTITLE1=Lonestar - My Front Porch Looking In
TTITLE2=Tracy Byrd - The Truth About Men
TTITLE3=Brad Paisley - Celebrity
TTITLE4=Sammy Kershaw - I Want My Money Back
TTITLE5=Brian McComas - 99.9% Sure (I've Never Been Here Before)
TTITLE6=Amy Dalley - Love's Got An Attitude
TTITLE7=Trace Adkins - Then They Do
TTITLE8=Trick Pony - A Boy Like You
TTITLE9=Darryl Worley – Vocals - Have You Forgotten
TTITLE10=Lonestar – Vocals - My Front Porch Looking In
TTITLE11=Tracy Byrd – Vocals - The Truth About Men
TTITLE12=Brad Paisley – Vocals - Celebrity
TTITLE13=Sammy Kershaw – Vocals - I Want My Money Back
TTITLE14=Brian McComas – Vocals - 99.9% Sure (I've Never Been Here Before)
TTITLE15=Amy Dalley – Vocals - Love's Got An Attitude
TTITLE16=Trace Adkins – Vocals - Then They Do
TTITLE17=Trick Pony – Vocals - A Boy Like You
EXTD=
EXTT0=
EXTT1=
EXTT2=
EXTT3=
EXTT4=
EXTT5=
EXTT6=
EXTT7=
EXTT8=
EXTT9=
EXTT10=
EXTT11=
EXTT12=
EXTT13=
EXTT14=
EXTT15=
EXTT16=
EXTT17=
PLAYORDER=
